%TF.GenerationSoftware,KiCad,Pcbnew,8.0.1*%
%TF.CreationDate,2024-06-17T10:53:38-04:00*%
%TF.ProjectId,trs80 multi connector,74727338-3020-46d7-956c-746920636f6e,rev?*%
%TF.SameCoordinates,Original*%
%TF.FileFunction,Soldermask,Top*%
%TF.FilePolarity,Negative*%
%FSLAX46Y46*%
G04 Gerber Fmt 4.6, Leading zero omitted, Abs format (unit mm)*
G04 Created by KiCad (PCBNEW 8.0.1) date 2024-06-17 10:53:38*
%MOMM*%
%LPD*%
G01*
G04 APERTURE LIST*
%ADD10R,1.700000X1.700000*%
%ADD11O,1.700000X1.700000*%
G04 APERTURE END LIST*
D10*
%TO.C,J4*%
X208026000Y-53594000D03*
D11*
X210566000Y-53594000D03*
X208026000Y-56134000D03*
X210566000Y-56134000D03*
X208026000Y-58674000D03*
X210566000Y-58674000D03*
X208026000Y-61214000D03*
X210566000Y-61214000D03*
X208026000Y-63754000D03*
X210566000Y-63754000D03*
X208026000Y-66294000D03*
X210566000Y-66294000D03*
X208026000Y-68834000D03*
X210566000Y-68834000D03*
X208026000Y-71374000D03*
X210566000Y-71374000D03*
X208026000Y-73914000D03*
X210566000Y-73914000D03*
X208026000Y-76454000D03*
X210566000Y-76454000D03*
X208026000Y-78994000D03*
X210566000Y-78994000D03*
X208026000Y-81534000D03*
X210566000Y-81534000D03*
X208026000Y-84074000D03*
X210566000Y-84074000D03*
X208026000Y-86614000D03*
X210566000Y-86614000D03*
X208026000Y-89154000D03*
X210566000Y-89154000D03*
X208026000Y-91694000D03*
X210566000Y-91694000D03*
X208026000Y-94234000D03*
X210566000Y-94234000D03*
X208026000Y-96774000D03*
X210566000Y-96774000D03*
X208026000Y-99314000D03*
X210566000Y-99314000D03*
X208026000Y-101854000D03*
X210566000Y-101854000D03*
X208026000Y-104394000D03*
X210566000Y-104394000D03*
X208026000Y-106934000D03*
X210566000Y-106934000D03*
X208026000Y-109474000D03*
X210566000Y-109474000D03*
X208026000Y-112014000D03*
X210566000Y-112014000D03*
X208026000Y-114554000D03*
X210566000Y-114554000D03*
%TD*%
D10*
%TO.C,J3*%
X166116000Y-53594000D03*
D11*
X168656000Y-53594000D03*
X166116000Y-56134000D03*
X168656000Y-56134000D03*
X166116000Y-58674000D03*
X168656000Y-58674000D03*
X166116000Y-61214000D03*
X168656000Y-61214000D03*
X166116000Y-63754000D03*
X168656000Y-63754000D03*
X166116000Y-66294000D03*
X168656000Y-66294000D03*
X166116000Y-68834000D03*
X168656000Y-68834000D03*
X166116000Y-71374000D03*
X168656000Y-71374000D03*
X166116000Y-73914000D03*
X168656000Y-73914000D03*
X166116000Y-76454000D03*
X168656000Y-76454000D03*
X166116000Y-78994000D03*
X168656000Y-78994000D03*
X166116000Y-81534000D03*
X168656000Y-81534000D03*
X166116000Y-84074000D03*
X168656000Y-84074000D03*
X166116000Y-86614000D03*
X168656000Y-86614000D03*
X166116000Y-89154000D03*
X168656000Y-89154000D03*
X166116000Y-91694000D03*
X168656000Y-91694000D03*
X166116000Y-94234000D03*
X168656000Y-94234000D03*
X166116000Y-96774000D03*
X168656000Y-96774000D03*
X166116000Y-99314000D03*
X168656000Y-99314000D03*
X166116000Y-101854000D03*
X168656000Y-101854000D03*
X166116000Y-104394000D03*
X168656000Y-104394000D03*
X166116000Y-106934000D03*
X168656000Y-106934000D03*
X166116000Y-109474000D03*
X168656000Y-109474000D03*
X166116000Y-112014000D03*
X168656000Y-112014000D03*
X166116000Y-114554000D03*
X168656000Y-114554000D03*
%TD*%
D10*
%TO.C,J2*%
X112776000Y-53848000D03*
D11*
X115316000Y-53848000D03*
X112776000Y-56388000D03*
X115316000Y-56388000D03*
X112776000Y-58928000D03*
X115316000Y-58928000D03*
X112776000Y-61468000D03*
X115316000Y-61468000D03*
X112776000Y-64008000D03*
X115316000Y-64008000D03*
X112776000Y-66548000D03*
X115316000Y-66548000D03*
X112776000Y-69088000D03*
X115316000Y-69088000D03*
X112776000Y-71628000D03*
X115316000Y-71628000D03*
X112776000Y-74168000D03*
X115316000Y-74168000D03*
X112776000Y-76708000D03*
X115316000Y-76708000D03*
X112776000Y-79248000D03*
X115316000Y-79248000D03*
X112776000Y-81788000D03*
X115316000Y-81788000D03*
X112776000Y-84328000D03*
X115316000Y-84328000D03*
X112776000Y-86868000D03*
X115316000Y-86868000D03*
X112776000Y-89408000D03*
X115316000Y-89408000D03*
X112776000Y-91948000D03*
X115316000Y-91948000D03*
X112776000Y-94488000D03*
X115316000Y-94488000D03*
X112776000Y-97028000D03*
X115316000Y-97028000D03*
X112776000Y-99568000D03*
X115316000Y-99568000D03*
X112776000Y-102108000D03*
X115316000Y-102108000D03*
X112776000Y-104648000D03*
X115316000Y-104648000D03*
X112776000Y-107188000D03*
X115316000Y-107188000D03*
X112776000Y-109728000D03*
X115316000Y-109728000D03*
X112776000Y-112268000D03*
X115316000Y-112268000D03*
X112776000Y-114808000D03*
X115316000Y-114808000D03*
%TD*%
D10*
%TO.C,J1*%
X66802000Y-53594000D03*
D11*
X69342000Y-53594000D03*
X66802000Y-56134000D03*
X69342000Y-56134000D03*
X66802000Y-58674000D03*
X69342000Y-58674000D03*
X66802000Y-61214000D03*
X69342000Y-61214000D03*
X66802000Y-63754000D03*
X69342000Y-63754000D03*
X66802000Y-66294000D03*
X69342000Y-66294000D03*
X66802000Y-68834000D03*
X69342000Y-68834000D03*
X66802000Y-71374000D03*
X69342000Y-71374000D03*
X66802000Y-73914000D03*
X69342000Y-73914000D03*
X66802000Y-76454000D03*
X69342000Y-76454000D03*
X66802000Y-78994000D03*
X69342000Y-78994000D03*
X66802000Y-81534000D03*
X69342000Y-81534000D03*
X66802000Y-84074000D03*
X69342000Y-84074000D03*
X66802000Y-86614000D03*
X69342000Y-86614000D03*
X66802000Y-89154000D03*
X69342000Y-89154000D03*
X66802000Y-91694000D03*
X69342000Y-91694000D03*
X66802000Y-94234000D03*
X69342000Y-94234000D03*
X66802000Y-96774000D03*
X69342000Y-96774000D03*
X66802000Y-99314000D03*
X69342000Y-99314000D03*
X66802000Y-101854000D03*
X69342000Y-101854000D03*
X66802000Y-104394000D03*
X69342000Y-104394000D03*
X66802000Y-106934000D03*
X69342000Y-106934000D03*
X66802000Y-109474000D03*
X69342000Y-109474000D03*
X66802000Y-112014000D03*
X69342000Y-112014000D03*
X66802000Y-114554000D03*
X69342000Y-114554000D03*
%TD*%
M02*
