M48
; DRILL file {KiCad 8.0.1} date 2024-06-17T10:53:34-0400
; FORMAT={-:-/ absolute / inch / decimal}
; #@! TF.CreationDate,2024-06-17T10:53:34-04:00
; #@! TF.GenerationSoftware,Kicad,Pcbnew,8.0.1
; #@! TF.FileFunction,Plated,1,2,PTH
FMAT,2
INCH
; #@! TA.AperFunction,Plated,PTH,ViaDrill
T1C0.0118
; #@! TA.AperFunction,Plated,PTH,ComponentDrill
T2C0.0394
%
G90
G05
T1
X4.3751Y-2.1923
X4.4893Y-3.8669
X4.4896Y-3.5688
X4.49Y-3.37
X4.4949Y-3.9669
X4.6356Y-2.91
X6.4614Y-2.1861
X6.5655Y-4.06
X6.5765Y-4.5735
T2
X2.63Y-2.11
X2.63Y-2.21
X2.63Y-2.31
X2.63Y-2.41
X2.63Y-2.51
X2.63Y-2.61
X2.63Y-2.71
X2.63Y-2.81
X2.63Y-2.91
X2.63Y-3.01
X2.63Y-3.11
X2.63Y-3.21
X2.63Y-3.31
X2.63Y-3.41
X2.63Y-3.51
X2.63Y-3.61
X2.63Y-3.71
X2.63Y-3.81
X2.63Y-3.91
X2.63Y-4.01
X2.63Y-4.11
X2.63Y-4.21
X2.63Y-4.31
X2.63Y-4.41
X2.63Y-4.51
X2.73Y-2.11
X2.73Y-2.21
X2.73Y-2.31
X2.73Y-2.41
X2.73Y-2.51
X2.73Y-2.61
X2.73Y-2.71
X2.73Y-2.81
X2.73Y-2.91
X2.73Y-3.01
X2.73Y-3.11
X2.73Y-3.21
X2.73Y-3.31
X2.73Y-3.41
X2.73Y-3.51
X2.73Y-3.61
X2.73Y-3.71
X2.73Y-3.81
X2.73Y-3.91
X2.73Y-4.01
X2.73Y-4.11
X2.73Y-4.21
X2.73Y-4.31
X2.73Y-4.41
X2.73Y-4.51
X4.44Y-2.12
X4.44Y-2.22
X4.44Y-2.32
X4.44Y-2.42
X4.44Y-2.52
X4.44Y-2.62
X4.44Y-2.72
X4.44Y-2.82
X4.44Y-2.92
X4.44Y-3.02
X4.44Y-3.12
X4.44Y-3.22
X4.44Y-3.32
X4.44Y-3.42
X4.44Y-3.52
X4.44Y-3.62
X4.44Y-3.72
X4.44Y-3.82
X4.44Y-3.92
X4.44Y-4.02
X4.44Y-4.12
X4.44Y-4.22
X4.44Y-4.32
X4.44Y-4.42
X4.44Y-4.52
X4.54Y-2.12
X4.54Y-2.22
X4.54Y-2.32
X4.54Y-2.42
X4.54Y-2.52
X4.54Y-2.62
X4.54Y-2.72
X4.54Y-2.82
X4.54Y-2.92
X4.54Y-3.02
X4.54Y-3.12
X4.54Y-3.22
X4.54Y-3.32
X4.54Y-3.42
X4.54Y-3.52
X4.54Y-3.62
X4.54Y-3.72
X4.54Y-3.82
X4.54Y-3.92
X4.54Y-4.02
X4.54Y-4.12
X4.54Y-4.22
X4.54Y-4.32
X4.54Y-4.42
X4.54Y-4.52
X6.54Y-2.11
X6.54Y-2.21
X6.54Y-2.31
X6.54Y-2.41
X6.54Y-2.51
X6.54Y-2.61
X6.54Y-2.71
X6.54Y-2.81
X6.54Y-2.91
X6.54Y-3.01
X6.54Y-3.11
X6.54Y-3.21
X6.54Y-3.31
X6.54Y-3.41
X6.54Y-3.51
X6.54Y-3.61
X6.54Y-3.71
X6.54Y-3.81
X6.54Y-3.91
X6.54Y-4.01
X6.54Y-4.11
X6.54Y-4.21
X6.54Y-4.31
X6.54Y-4.41
X6.54Y-4.51
X6.64Y-2.11
X6.64Y-2.21
X6.64Y-2.31
X6.64Y-2.41
X6.64Y-2.51
X6.64Y-2.61
X6.64Y-2.71
X6.64Y-2.81
X6.64Y-2.91
X6.64Y-3.01
X6.64Y-3.11
X6.64Y-3.21
X6.64Y-3.31
X6.64Y-3.41
X6.64Y-3.51
X6.64Y-3.61
X6.64Y-3.71
X6.64Y-3.81
X6.64Y-3.91
X6.64Y-4.01
X6.64Y-4.11
X6.64Y-4.21
X6.64Y-4.31
X6.64Y-4.41
X6.64Y-4.51
X8.19Y-2.11
X8.19Y-2.21
X8.19Y-2.31
X8.19Y-2.41
X8.19Y-2.51
X8.19Y-2.61
X8.19Y-2.71
X8.19Y-2.81
X8.19Y-2.91
X8.19Y-3.01
X8.19Y-3.11
X8.19Y-3.21
X8.19Y-3.31
X8.19Y-3.41
X8.19Y-3.51
X8.19Y-3.61
X8.19Y-3.71
X8.19Y-3.81
X8.19Y-3.91
X8.19Y-4.01
X8.19Y-4.11
X8.19Y-4.21
X8.19Y-4.31
X8.19Y-4.41
X8.19Y-4.51
X8.29Y-2.11
X8.29Y-2.21
X8.29Y-2.31
X8.29Y-2.41
X8.29Y-2.51
X8.29Y-2.61
X8.29Y-2.71
X8.29Y-2.81
X8.29Y-2.91
X8.29Y-3.01
X8.29Y-3.11
X8.29Y-3.21
X8.29Y-3.31
X8.29Y-3.41
X8.29Y-3.51
X8.29Y-3.61
X8.29Y-3.71
X8.29Y-3.81
X8.29Y-3.91
X8.29Y-4.01
X8.29Y-4.11
X8.29Y-4.21
X8.29Y-4.31
X8.29Y-4.41
X8.29Y-4.51
M30
