%TF.GenerationSoftware,KiCad,Pcbnew,8.0.1*%
%TF.CreationDate,2024-06-17T10:53:38-04:00*%
%TF.ProjectId,trs80 multi connector,74727338-3020-46d7-956c-746920636f6e,rev?*%
%TF.SameCoordinates,Original*%
%TF.FileFunction,Copper,L1,Top*%
%TF.FilePolarity,Positive*%
%FSLAX46Y46*%
G04 Gerber Fmt 4.6, Leading zero omitted, Abs format (unit mm)*
G04 Created by KiCad (PCBNEW 8.0.1) date 2024-06-17 10:53:38*
%MOMM*%
%LPD*%
G01*
G04 APERTURE LIST*
%TA.AperFunction,ComponentPad*%
%ADD10R,1.700000X1.700000*%
%TD*%
%TA.AperFunction,ComponentPad*%
%ADD11O,1.700000X1.700000*%
%TD*%
%TA.AperFunction,ViaPad*%
%ADD12C,0.600000*%
%TD*%
%TA.AperFunction,Conductor*%
%ADD13C,0.200000*%
%TD*%
G04 APERTURE END LIST*
D10*
%TO.P,J4,1,Pin_1*%
%TO.N,Pin_1*%
X208026000Y-53594000D03*
D11*
%TO.P,J4,2,Pin_2*%
%TO.N,Pin_2*%
X210566000Y-53594000D03*
%TO.P,J4,3,Pin_3*%
%TO.N,Pin_3*%
X208026000Y-56134000D03*
%TO.P,J4,4,Pin_4*%
%TO.N,Pin_4*%
X210566000Y-56134000D03*
%TO.P,J4,5,Pin_5*%
%TO.N,Pin_5*%
X208026000Y-58674000D03*
%TO.P,J4,6,Pin_6*%
%TO.N,Pin_6*%
X210566000Y-58674000D03*
%TO.P,J4,7,Pin_7*%
%TO.N,Pin_7*%
X208026000Y-61214000D03*
%TO.P,J4,8,Pin_8*%
%TO.N,Pin_8*%
X210566000Y-61214000D03*
%TO.P,J4,9,Pin_9*%
%TO.N,Pin_9*%
X208026000Y-63754000D03*
%TO.P,J4,10,Pin_10*%
%TO.N,Pin_10*%
X210566000Y-63754000D03*
%TO.P,J4,11,Pin_11*%
%TO.N,Pin_11*%
X208026000Y-66294000D03*
%TO.P,J4,12,Pin_12*%
%TO.N,Pin_12*%
X210566000Y-66294000D03*
%TO.P,J4,13,Pin_13*%
%TO.N,Pin_13*%
X208026000Y-68834000D03*
%TO.P,J4,14,Pin_14*%
%TO.N,Pin_14*%
X210566000Y-68834000D03*
%TO.P,J4,15,Pin_15*%
%TO.N,Pin_15*%
X208026000Y-71374000D03*
%TO.P,J4,16,Pin_16*%
%TO.N,Pin_16*%
X210566000Y-71374000D03*
%TO.P,J4,17,Pin_17*%
%TO.N,Pin_17*%
X208026000Y-73914000D03*
%TO.P,J4,18,Pin_18*%
%TO.N,Pin_18*%
X210566000Y-73914000D03*
%TO.P,J4,19,Pin_19*%
%TO.N,Pin_19*%
X208026000Y-76454000D03*
%TO.P,J4,20,Pin_20*%
%TO.N,Pin_20*%
X210566000Y-76454000D03*
%TO.P,J4,21,Pin_21*%
%TO.N,Pin_21*%
X208026000Y-78994000D03*
%TO.P,J4,22,Pin_22*%
%TO.N,Pin_22*%
X210566000Y-78994000D03*
%TO.P,J4,23,Pin_23*%
%TO.N,Pin_23*%
X208026000Y-81534000D03*
%TO.P,J4,24,Pin_24*%
%TO.N,Pin_24*%
X210566000Y-81534000D03*
%TO.P,J4,25,Pin_25*%
%TO.N,Pin_25*%
X208026000Y-84074000D03*
%TO.P,J4,26,Pin_26*%
%TO.N,Pin_26*%
X210566000Y-84074000D03*
%TO.P,J4,27,Pin_27*%
%TO.N,Pin_27*%
X208026000Y-86614000D03*
%TO.P,J4,28,Pin_28*%
%TO.N,Pin_28*%
X210566000Y-86614000D03*
%TO.P,J4,29,Pin_29*%
%TO.N,Pin_29*%
X208026000Y-89154000D03*
%TO.P,J4,30,Pin_30*%
%TO.N,Pin_30*%
X210566000Y-89154000D03*
%TO.P,J4,31,Pin_31*%
%TO.N,Pin_31*%
X208026000Y-91694000D03*
%TO.P,J4,32,Pin_32*%
%TO.N,Pin_32*%
X210566000Y-91694000D03*
%TO.P,J4,33,Pin_33*%
%TO.N,Pin_33*%
X208026000Y-94234000D03*
%TO.P,J4,34,Pin_34*%
%TO.N,Pin_34*%
X210566000Y-94234000D03*
%TO.P,J4,35,Pin_35*%
%TO.N,Pin_35*%
X208026000Y-96774000D03*
%TO.P,J4,36,Pin_36*%
%TO.N,Pin_36*%
X210566000Y-96774000D03*
%TO.P,J4,37,Pin_37*%
%TO.N,Pin_37*%
X208026000Y-99314000D03*
%TO.P,J4,38,Pin_38*%
%TO.N,Pin_38*%
X210566000Y-99314000D03*
%TO.P,J4,39,Pin_39*%
%TO.N,Pin_39*%
X208026000Y-101854000D03*
%TO.P,J4,40,Pin_40*%
%TO.N,Pin_40*%
X210566000Y-101854000D03*
%TO.P,J4,41,Pin_41*%
%TO.N,Pin_41*%
X208026000Y-104394000D03*
%TO.P,J4,42,Pin_42*%
%TO.N,Pin_42*%
X210566000Y-104394000D03*
%TO.P,J4,43,Pin_43*%
%TO.N,Pin_43*%
X208026000Y-106934000D03*
%TO.P,J4,44,Pin_44*%
%TO.N,Pin_44*%
X210566000Y-106934000D03*
%TO.P,J4,45,Pin_45*%
%TO.N,Pin_45*%
X208026000Y-109474000D03*
%TO.P,J4,46,Pin_46*%
%TO.N,Pin_46*%
X210566000Y-109474000D03*
%TO.P,J4,47,Pin_47*%
%TO.N,Pin_47*%
X208026000Y-112014000D03*
%TO.P,J4,48,Pin_48*%
%TO.N,Pin_48*%
X210566000Y-112014000D03*
%TO.P,J4,49,Pin_49*%
%TO.N,Pin_49*%
X208026000Y-114554000D03*
%TO.P,J4,50,Pin_50*%
%TO.N,Pin_50*%
X210566000Y-114554000D03*
%TD*%
D10*
%TO.P,J3,1,Pin_1*%
%TO.N,Pin_1*%
X166116000Y-53594000D03*
D11*
%TO.P,J3,2,Pin_2*%
%TO.N,Pin_2*%
X168656000Y-53594000D03*
%TO.P,J3,3,Pin_3*%
%TO.N,Pin_3*%
X166116000Y-56134000D03*
%TO.P,J3,4,Pin_4*%
%TO.N,Pin_4*%
X168656000Y-56134000D03*
%TO.P,J3,5,Pin_5*%
%TO.N,Pin_5*%
X166116000Y-58674000D03*
%TO.P,J3,6,Pin_6*%
%TO.N,Pin_6*%
X168656000Y-58674000D03*
%TO.P,J3,7,Pin_7*%
%TO.N,Pin_7*%
X166116000Y-61214000D03*
%TO.P,J3,8,Pin_8*%
%TO.N,Pin_8*%
X168656000Y-61214000D03*
%TO.P,J3,9,Pin_9*%
%TO.N,Pin_9*%
X166116000Y-63754000D03*
%TO.P,J3,10,Pin_10*%
%TO.N,Pin_10*%
X168656000Y-63754000D03*
%TO.P,J3,11,Pin_11*%
%TO.N,Pin_11*%
X166116000Y-66294000D03*
%TO.P,J3,12,Pin_12*%
%TO.N,Pin_12*%
X168656000Y-66294000D03*
%TO.P,J3,13,Pin_13*%
%TO.N,Pin_13*%
X166116000Y-68834000D03*
%TO.P,J3,14,Pin_14*%
%TO.N,Pin_14*%
X168656000Y-68834000D03*
%TO.P,J3,15,Pin_15*%
%TO.N,Pin_15*%
X166116000Y-71374000D03*
%TO.P,J3,16,Pin_16*%
%TO.N,Pin_16*%
X168656000Y-71374000D03*
%TO.P,J3,17,Pin_17*%
%TO.N,Pin_17*%
X166116000Y-73914000D03*
%TO.P,J3,18,Pin_18*%
%TO.N,Pin_18*%
X168656000Y-73914000D03*
%TO.P,J3,19,Pin_19*%
%TO.N,Pin_19*%
X166116000Y-76454000D03*
%TO.P,J3,20,Pin_20*%
%TO.N,Pin_20*%
X168656000Y-76454000D03*
%TO.P,J3,21,Pin_21*%
%TO.N,Pin_21*%
X166116000Y-78994000D03*
%TO.P,J3,22,Pin_22*%
%TO.N,Pin_22*%
X168656000Y-78994000D03*
%TO.P,J3,23,Pin_23*%
%TO.N,Pin_23*%
X166116000Y-81534000D03*
%TO.P,J3,24,Pin_24*%
%TO.N,Pin_24*%
X168656000Y-81534000D03*
%TO.P,J3,25,Pin_25*%
%TO.N,Pin_25*%
X166116000Y-84074000D03*
%TO.P,J3,26,Pin_26*%
%TO.N,Pin_26*%
X168656000Y-84074000D03*
%TO.P,J3,27,Pin_27*%
%TO.N,Pin_27*%
X166116000Y-86614000D03*
%TO.P,J3,28,Pin_28*%
%TO.N,Pin_28*%
X168656000Y-86614000D03*
%TO.P,J3,29,Pin_29*%
%TO.N,Pin_29*%
X166116000Y-89154000D03*
%TO.P,J3,30,Pin_30*%
%TO.N,Pin_30*%
X168656000Y-89154000D03*
%TO.P,J3,31,Pin_31*%
%TO.N,Pin_31*%
X166116000Y-91694000D03*
%TO.P,J3,32,Pin_32*%
%TO.N,Pin_32*%
X168656000Y-91694000D03*
%TO.P,J3,33,Pin_33*%
%TO.N,Pin_33*%
X166116000Y-94234000D03*
%TO.P,J3,34,Pin_34*%
%TO.N,Pin_34*%
X168656000Y-94234000D03*
%TO.P,J3,35,Pin_35*%
%TO.N,Pin_35*%
X166116000Y-96774000D03*
%TO.P,J3,36,Pin_36*%
%TO.N,Pin_36*%
X168656000Y-96774000D03*
%TO.P,J3,37,Pin_37*%
%TO.N,Pin_37*%
X166116000Y-99314000D03*
%TO.P,J3,38,Pin_38*%
%TO.N,Pin_38*%
X168656000Y-99314000D03*
%TO.P,J3,39,Pin_39*%
%TO.N,Pin_39*%
X166116000Y-101854000D03*
%TO.P,J3,40,Pin_40*%
%TO.N,Pin_40*%
X168656000Y-101854000D03*
%TO.P,J3,41,Pin_41*%
%TO.N,Pin_41*%
X166116000Y-104394000D03*
%TO.P,J3,42,Pin_42*%
%TO.N,Pin_42*%
X168656000Y-104394000D03*
%TO.P,J3,43,Pin_43*%
%TO.N,Pin_43*%
X166116000Y-106934000D03*
%TO.P,J3,44,Pin_44*%
%TO.N,Pin_44*%
X168656000Y-106934000D03*
%TO.P,J3,45,Pin_45*%
%TO.N,Pin_45*%
X166116000Y-109474000D03*
%TO.P,J3,46,Pin_46*%
%TO.N,Pin_46*%
X168656000Y-109474000D03*
%TO.P,J3,47,Pin_47*%
%TO.N,Pin_47*%
X166116000Y-112014000D03*
%TO.P,J3,48,Pin_48*%
%TO.N,Pin_48*%
X168656000Y-112014000D03*
%TO.P,J3,49,Pin_49*%
%TO.N,Pin_49*%
X166116000Y-114554000D03*
%TO.P,J3,50,Pin_50*%
%TO.N,Pin_50*%
X168656000Y-114554000D03*
%TD*%
D10*
%TO.P,J2,1,Pin_1*%
%TO.N,Pin_1*%
X112776000Y-53848000D03*
D11*
%TO.P,J2,2,Pin_2*%
%TO.N,Pin_2*%
X115316000Y-53848000D03*
%TO.P,J2,3,Pin_3*%
%TO.N,Pin_3*%
X112776000Y-56388000D03*
%TO.P,J2,4,Pin_4*%
%TO.N,Pin_4*%
X115316000Y-56388000D03*
%TO.P,J2,5,Pin_5*%
%TO.N,Pin_5*%
X112776000Y-58928000D03*
%TO.P,J2,6,Pin_6*%
%TO.N,Pin_6*%
X115316000Y-58928000D03*
%TO.P,J2,7,Pin_7*%
%TO.N,Pin_7*%
X112776000Y-61468000D03*
%TO.P,J2,8,Pin_8*%
%TO.N,Pin_8*%
X115316000Y-61468000D03*
%TO.P,J2,9,Pin_9*%
%TO.N,Pin_9*%
X112776000Y-64008000D03*
%TO.P,J2,10,Pin_10*%
%TO.N,Pin_10*%
X115316000Y-64008000D03*
%TO.P,J2,11,Pin_11*%
%TO.N,Pin_11*%
X112776000Y-66548000D03*
%TO.P,J2,12,Pin_12*%
%TO.N,Pin_12*%
X115316000Y-66548000D03*
%TO.P,J2,13,Pin_13*%
%TO.N,Pin_13*%
X112776000Y-69088000D03*
%TO.P,J2,14,Pin_14*%
%TO.N,Pin_14*%
X115316000Y-69088000D03*
%TO.P,J2,15,Pin_15*%
%TO.N,Pin_15*%
X112776000Y-71628000D03*
%TO.P,J2,16,Pin_16*%
%TO.N,Pin_16*%
X115316000Y-71628000D03*
%TO.P,J2,17,Pin_17*%
%TO.N,Pin_17*%
X112776000Y-74168000D03*
%TO.P,J2,18,Pin_18*%
%TO.N,Pin_18*%
X115316000Y-74168000D03*
%TO.P,J2,19,Pin_19*%
%TO.N,Pin_19*%
X112776000Y-76708000D03*
%TO.P,J2,20,Pin_20*%
%TO.N,Pin_20*%
X115316000Y-76708000D03*
%TO.P,J2,21,Pin_21*%
%TO.N,Pin_21*%
X112776000Y-79248000D03*
%TO.P,J2,22,Pin_22*%
%TO.N,Pin_22*%
X115316000Y-79248000D03*
%TO.P,J2,23,Pin_23*%
%TO.N,Pin_23*%
X112776000Y-81788000D03*
%TO.P,J2,24,Pin_24*%
%TO.N,Pin_24*%
X115316000Y-81788000D03*
%TO.P,J2,25,Pin_25*%
%TO.N,Pin_25*%
X112776000Y-84328000D03*
%TO.P,J2,26,Pin_26*%
%TO.N,Pin_26*%
X115316000Y-84328000D03*
%TO.P,J2,27,Pin_27*%
%TO.N,Pin_27*%
X112776000Y-86868000D03*
%TO.P,J2,28,Pin_28*%
%TO.N,Pin_28*%
X115316000Y-86868000D03*
%TO.P,J2,29,Pin_29*%
%TO.N,Pin_29*%
X112776000Y-89408000D03*
%TO.P,J2,30,Pin_30*%
%TO.N,Pin_30*%
X115316000Y-89408000D03*
%TO.P,J2,31,Pin_31*%
%TO.N,Pin_31*%
X112776000Y-91948000D03*
%TO.P,J2,32,Pin_32*%
%TO.N,Pin_32*%
X115316000Y-91948000D03*
%TO.P,J2,33,Pin_33*%
%TO.N,Pin_33*%
X112776000Y-94488000D03*
%TO.P,J2,34,Pin_34*%
%TO.N,Pin_34*%
X115316000Y-94488000D03*
%TO.P,J2,35,Pin_35*%
%TO.N,Pin_35*%
X112776000Y-97028000D03*
%TO.P,J2,36,Pin_36*%
%TO.N,Pin_36*%
X115316000Y-97028000D03*
%TO.P,J2,37,Pin_37*%
%TO.N,Pin_37*%
X112776000Y-99568000D03*
%TO.P,J2,38,Pin_38*%
%TO.N,Pin_38*%
X115316000Y-99568000D03*
%TO.P,J2,39,Pin_39*%
%TO.N,Pin_39*%
X112776000Y-102108000D03*
%TO.P,J2,40,Pin_40*%
%TO.N,Pin_40*%
X115316000Y-102108000D03*
%TO.P,J2,41,Pin_41*%
%TO.N,Pin_41*%
X112776000Y-104648000D03*
%TO.P,J2,42,Pin_42*%
%TO.N,Pin_42*%
X115316000Y-104648000D03*
%TO.P,J2,43,Pin_43*%
%TO.N,Pin_43*%
X112776000Y-107188000D03*
%TO.P,J2,44,Pin_44*%
%TO.N,Pin_44*%
X115316000Y-107188000D03*
%TO.P,J2,45,Pin_45*%
%TO.N,Pin_45*%
X112776000Y-109728000D03*
%TO.P,J2,46,Pin_46*%
%TO.N,Pin_46*%
X115316000Y-109728000D03*
%TO.P,J2,47,Pin_47*%
%TO.N,Pin_47*%
X112776000Y-112268000D03*
%TO.P,J2,48,Pin_48*%
%TO.N,Pin_48*%
X115316000Y-112268000D03*
%TO.P,J2,49,Pin_49*%
%TO.N,Pin_49*%
X112776000Y-114808000D03*
%TO.P,J2,50,Pin_50*%
%TO.N,Pin_50*%
X115316000Y-114808000D03*
%TD*%
D10*
%TO.P,J1,1,Pin_1*%
%TO.N,Pin_1*%
X66802000Y-53594000D03*
D11*
%TO.P,J1,2,Pin_2*%
%TO.N,Pin_2*%
X69342000Y-53594000D03*
%TO.P,J1,3,Pin_3*%
%TO.N,Pin_3*%
X66802000Y-56134000D03*
%TO.P,J1,4,Pin_4*%
%TO.N,Pin_4*%
X69342000Y-56134000D03*
%TO.P,J1,5,Pin_5*%
%TO.N,Pin_5*%
X66802000Y-58674000D03*
%TO.P,J1,6,Pin_6*%
%TO.N,Pin_6*%
X69342000Y-58674000D03*
%TO.P,J1,7,Pin_7*%
%TO.N,Pin_7*%
X66802000Y-61214000D03*
%TO.P,J1,8,Pin_8*%
%TO.N,Pin_8*%
X69342000Y-61214000D03*
%TO.P,J1,9,Pin_9*%
%TO.N,Pin_9*%
X66802000Y-63754000D03*
%TO.P,J1,10,Pin_10*%
%TO.N,Pin_10*%
X69342000Y-63754000D03*
%TO.P,J1,11,Pin_11*%
%TO.N,Pin_11*%
X66802000Y-66294000D03*
%TO.P,J1,12,Pin_12*%
%TO.N,Pin_12*%
X69342000Y-66294000D03*
%TO.P,J1,13,Pin_13*%
%TO.N,Pin_13*%
X66802000Y-68834000D03*
%TO.P,J1,14,Pin_14*%
%TO.N,Pin_14*%
X69342000Y-68834000D03*
%TO.P,J1,15,Pin_15*%
%TO.N,Pin_15*%
X66802000Y-71374000D03*
%TO.P,J1,16,Pin_16*%
%TO.N,Pin_16*%
X69342000Y-71374000D03*
%TO.P,J1,17,Pin_17*%
%TO.N,Pin_17*%
X66802000Y-73914000D03*
%TO.P,J1,18,Pin_18*%
%TO.N,Pin_18*%
X69342000Y-73914000D03*
%TO.P,J1,19,Pin_19*%
%TO.N,Pin_19*%
X66802000Y-76454000D03*
%TO.P,J1,20,Pin_20*%
%TO.N,Pin_20*%
X69342000Y-76454000D03*
%TO.P,J1,21,Pin_21*%
%TO.N,Pin_21*%
X66802000Y-78994000D03*
%TO.P,J1,22,Pin_22*%
%TO.N,Pin_22*%
X69342000Y-78994000D03*
%TO.P,J1,23,Pin_23*%
%TO.N,Pin_23*%
X66802000Y-81534000D03*
%TO.P,J1,24,Pin_24*%
%TO.N,Pin_24*%
X69342000Y-81534000D03*
%TO.P,J1,25,Pin_25*%
%TO.N,Pin_25*%
X66802000Y-84074000D03*
%TO.P,J1,26,Pin_26*%
%TO.N,Pin_26*%
X69342000Y-84074000D03*
%TO.P,J1,27,Pin_27*%
%TO.N,Pin_27*%
X66802000Y-86614000D03*
%TO.P,J1,28,Pin_28*%
%TO.N,Pin_28*%
X69342000Y-86614000D03*
%TO.P,J1,29,Pin_29*%
%TO.N,Pin_29*%
X66802000Y-89154000D03*
%TO.P,J1,30,Pin_30*%
%TO.N,Pin_30*%
X69342000Y-89154000D03*
%TO.P,J1,31,Pin_31*%
%TO.N,Pin_31*%
X66802000Y-91694000D03*
%TO.P,J1,32,Pin_32*%
%TO.N,Pin_32*%
X69342000Y-91694000D03*
%TO.P,J1,33,Pin_33*%
%TO.N,Pin_33*%
X66802000Y-94234000D03*
%TO.P,J1,34,Pin_34*%
%TO.N,Pin_34*%
X69342000Y-94234000D03*
%TO.P,J1,35,Pin_35*%
%TO.N,Pin_35*%
X66802000Y-96774000D03*
%TO.P,J1,36,Pin_36*%
%TO.N,Pin_36*%
X69342000Y-96774000D03*
%TO.P,J1,37,Pin_37*%
%TO.N,Pin_37*%
X66802000Y-99314000D03*
%TO.P,J1,38,Pin_38*%
%TO.N,Pin_38*%
X69342000Y-99314000D03*
%TO.P,J1,39,Pin_39*%
%TO.N,Pin_39*%
X66802000Y-101854000D03*
%TO.P,J1,40,Pin_40*%
%TO.N,Pin_40*%
X69342000Y-101854000D03*
%TO.P,J1,41,Pin_41*%
%TO.N,Pin_41*%
X66802000Y-104394000D03*
%TO.P,J1,42,Pin_42*%
%TO.N,Pin_42*%
X69342000Y-104394000D03*
%TO.P,J1,43,Pin_43*%
%TO.N,Pin_43*%
X66802000Y-106934000D03*
%TO.P,J1,44,Pin_44*%
%TO.N,Pin_44*%
X69342000Y-106934000D03*
%TO.P,J1,45,Pin_45*%
%TO.N,Pin_45*%
X66802000Y-109474000D03*
%TO.P,J1,46,Pin_46*%
%TO.N,Pin_46*%
X69342000Y-109474000D03*
%TO.P,J1,47,Pin_47*%
%TO.N,Pin_47*%
X66802000Y-112014000D03*
%TO.P,J1,48,Pin_48*%
%TO.N,Pin_48*%
X69342000Y-112014000D03*
%TO.P,J1,49,Pin_49*%
%TO.N,Pin_49*%
X66802000Y-114554000D03*
%TO.P,J1,50,Pin_50*%
%TO.N,Pin_50*%
X69342000Y-114554000D03*
%TD*%
D12*
%TO.N,Pin_17*%
X117744000Y-73914000D03*
%TO.N,Pin_39*%
X166763000Y-103124000D03*
X114171000Y-100760000D03*
%TO.N,Pin_29*%
X114036000Y-90646400D03*
%TO.N,Pin_27*%
X114046000Y-85598000D03*
%TO.N,Pin_37*%
X114027000Y-98219400D03*
%TO.N,Pin_50*%
X167042000Y-116168000D03*
%TO.N,Pin_4*%
X111128000Y-55685300D03*
X164119000Y-55527400D03*
%TD*%
D13*
%TO.N,Pin_19*%
X206874000Y-76454000D02*
X208026000Y-76454000D01*
X205684000Y-77644600D02*
X206874000Y-76454000D01*
X168170000Y-77644600D02*
X205684000Y-77644600D01*
X167268000Y-76741900D02*
X168170000Y-77644600D01*
X167268000Y-76454000D02*
X167268000Y-76741900D01*
X166116000Y-76454000D02*
X167268000Y-76454000D01*
%TO.N,Pin_17*%
X166116000Y-73914000D02*
X117744000Y-73914000D01*
%TO.N,Pin_7*%
X67953700Y-61214000D02*
X66802000Y-61214000D01*
X67953700Y-61501900D02*
X67953700Y-61214000D01*
X68846900Y-62395100D02*
X67953700Y-61501900D01*
X110697000Y-62395100D02*
X68846900Y-62395100D01*
X111624000Y-61468000D02*
X110697000Y-62395100D01*
X112776000Y-61468000D02*
X111624000Y-61468000D01*
X206874000Y-61214000D02*
X208026000Y-61214000D01*
X205676000Y-62412000D02*
X206874000Y-61214000D01*
X168197000Y-62412000D02*
X205676000Y-62412000D01*
X167268000Y-61482500D02*
X168197000Y-62412000D01*
X167268000Y-61214000D02*
X167268000Y-61482500D01*
X166116000Y-61214000D02*
X167268000Y-61214000D01*
%TO.N,Pin_21*%
X167268000Y-78994000D02*
X166116000Y-78994000D01*
X167268000Y-79262500D02*
X167268000Y-78994000D01*
X168190000Y-80184600D02*
X167268000Y-79262500D01*
X205684000Y-80184600D02*
X168190000Y-80184600D01*
X206874000Y-78994000D02*
X205684000Y-80184600D01*
X208026000Y-78994000D02*
X206874000Y-78994000D01*
X113966000Y-80438400D02*
X112776000Y-79248000D01*
X163520000Y-80438400D02*
X113966000Y-80438400D01*
X164964000Y-78994000D02*
X163520000Y-80438400D01*
X166116000Y-78994000D02*
X164964000Y-78994000D01*
%TO.N,Pin_3*%
X113928000Y-56388000D02*
X112776000Y-56388000D01*
X113928000Y-56656500D02*
X113928000Y-56388000D01*
X114858000Y-57587100D02*
X113928000Y-56656500D01*
X116693000Y-57587100D02*
X114858000Y-57587100D01*
X118146000Y-56134000D02*
X116693000Y-57587100D01*
X166116000Y-56134000D02*
X118146000Y-56134000D01*
%TO.N,Pin_15*%
X67953700Y-71374000D02*
X66802000Y-71374000D01*
X67953700Y-71661900D02*
X67953700Y-71374000D01*
X68846900Y-72555100D02*
X67953700Y-71661900D01*
X110697000Y-72555100D02*
X68846900Y-72555100D01*
X111624000Y-71628000D02*
X110697000Y-72555100D01*
X112776000Y-71628000D02*
X111624000Y-71628000D01*
X167268000Y-71374000D02*
X166116000Y-71374000D01*
X167268000Y-71661900D02*
X167268000Y-71374000D01*
X168136000Y-72530400D02*
X167268000Y-71661900D01*
X205718000Y-72530400D02*
X168136000Y-72530400D01*
X206874000Y-71374000D02*
X205718000Y-72530400D01*
X208026000Y-71374000D02*
X206874000Y-71374000D01*
X113949000Y-72801300D02*
X112776000Y-71628000D01*
X163537000Y-72801300D02*
X113949000Y-72801300D01*
X164964000Y-71374000D02*
X163537000Y-72801300D01*
X166116000Y-71374000D02*
X164964000Y-71374000D01*
%TO.N,Pin_49*%
X110709100Y-115723200D02*
X111624300Y-114808000D01*
X68835000Y-115723200D02*
X110709100Y-115723200D01*
X67953700Y-114841900D02*
X68835000Y-115723200D01*
X67953700Y-114554000D02*
X67953700Y-114841900D01*
X66802000Y-114554000D02*
X67953700Y-114554000D01*
X112776000Y-114808000D02*
X112200200Y-114808000D01*
X112200200Y-114808000D02*
X111624300Y-114808000D01*
X164023600Y-113613300D02*
X164964300Y-114554000D01*
X113394900Y-113613300D02*
X164023600Y-113613300D01*
X112200200Y-114808000D02*
X113394900Y-113613300D01*
X166116000Y-114554000D02*
X164964300Y-114554000D01*
X167267700Y-114822500D02*
X167267700Y-114554000D01*
X168153400Y-115708200D02*
X167267700Y-114822500D01*
X205720100Y-115708200D02*
X168153400Y-115708200D01*
X206874300Y-114554000D02*
X205720100Y-115708200D01*
X208026000Y-114554000D02*
X206874300Y-114554000D01*
X166116000Y-114554000D02*
X167267700Y-114554000D01*
%TO.N,Pin_31*%
X67953700Y-91694000D02*
X66802000Y-91694000D01*
X67953700Y-91981900D02*
X67953700Y-91694000D01*
X68828000Y-92856200D02*
X67953700Y-91981900D01*
X110716000Y-92856200D02*
X68828000Y-92856200D01*
X111624000Y-91948000D02*
X110716000Y-92856200D01*
X112776000Y-91948000D02*
X111624000Y-91948000D01*
%TO.N,Pin_1*%
X112776000Y-53848000D02*
X111624000Y-53848000D01*
X110673000Y-54799100D02*
X111624000Y-53848000D01*
X68870900Y-54799100D02*
X110673000Y-54799100D01*
X67953700Y-53881900D02*
X68870900Y-54799100D01*
X67953700Y-53594000D02*
X67953700Y-53881900D01*
X66802000Y-53594000D02*
X67953700Y-53594000D01*
X162232000Y-53594000D02*
X166116000Y-53594000D01*
X160826000Y-54999700D02*
X162232000Y-53594000D01*
X112776000Y-54999700D02*
X160826000Y-54999700D01*
X111624000Y-53848000D02*
X112776000Y-54999700D01*
%TO.N,Pin_39*%
X169104000Y-103124000D02*
X166763000Y-103124000D01*
X169897000Y-102331000D02*
X169104000Y-103124000D01*
X206397000Y-102331000D02*
X169897000Y-102331000D01*
X206874000Y-101854000D02*
X206397000Y-102331000D01*
X208026000Y-101854000D02*
X206874000Y-101854000D01*
X163870000Y-100760000D02*
X114171000Y-100760000D01*
X164964000Y-101854000D02*
X163870000Y-100760000D01*
X166116000Y-101854000D02*
X164964000Y-101854000D01*
%TO.N,Pin_47*%
X67953700Y-112014000D02*
X66802000Y-112014000D01*
X67953700Y-112302000D02*
X67953700Y-112014000D01*
X68872200Y-113220000D02*
X67953700Y-112302000D01*
X110672000Y-113220000D02*
X68872200Y-113220000D01*
X111624000Y-112268000D02*
X110672000Y-113220000D01*
X112776000Y-112268000D02*
X111624000Y-112268000D01*
X167315000Y-113213000D02*
X166116000Y-112014000D01*
X205675000Y-113213000D02*
X167315000Y-113213000D01*
X206874000Y-112014000D02*
X205675000Y-113213000D01*
X208026000Y-112014000D02*
X206874000Y-112014000D01*
%TO.N,Pin_35*%
X67953700Y-96774000D02*
X66802000Y-96774000D01*
X67953700Y-97061900D02*
X67953700Y-96774000D01*
X68846900Y-97955100D02*
X67953700Y-97061900D01*
X110697000Y-97955100D02*
X68846900Y-97955100D01*
X111624000Y-97028000D02*
X110697000Y-97955100D01*
X112776000Y-97028000D02*
X111624000Y-97028000D01*
X206874000Y-96774000D02*
X208026000Y-96774000D01*
X205676000Y-97972000D02*
X206874000Y-96774000D01*
X168197000Y-97972000D02*
X205676000Y-97972000D01*
X167268000Y-97042500D02*
X168197000Y-97972000D01*
X167268000Y-96774000D02*
X167268000Y-97042500D01*
X166116000Y-96774000D02*
X167268000Y-96774000D01*
%TO.N,Pin_23*%
X67953700Y-81534000D02*
X66802000Y-81534000D01*
X67953700Y-81821900D02*
X67953700Y-81534000D01*
X68846900Y-82715100D02*
X67953700Y-81821900D01*
X110697000Y-82715100D02*
X68846900Y-82715100D01*
X111624000Y-81788000D02*
X110697000Y-82715100D01*
X112776000Y-81788000D02*
X111624000Y-81788000D01*
X113949000Y-82961300D02*
X112776000Y-81788000D01*
X163537000Y-82961300D02*
X113949000Y-82961300D01*
X164964000Y-81534000D02*
X163537000Y-82961300D01*
X166116000Y-81534000D02*
X164964000Y-81534000D01*
X189053000Y-81534000D02*
X208026000Y-81534000D01*
X187863000Y-82724600D02*
X189053000Y-81534000D01*
X168190000Y-82724600D02*
X187863000Y-82724600D01*
X167268000Y-81802500D02*
X168190000Y-82724600D01*
X167268000Y-81534000D02*
X167268000Y-81802500D01*
X166116000Y-81534000D02*
X167268000Y-81534000D01*
%TO.N,Pin_41*%
X67953700Y-104394000D02*
X66802000Y-104394000D01*
X67953700Y-104682000D02*
X67953700Y-104394000D01*
X68846500Y-105575000D02*
X67953700Y-104682000D01*
X110698000Y-105575000D02*
X68846500Y-105575000D01*
X111624000Y-104648000D02*
X110698000Y-105575000D01*
X112776000Y-104648000D02*
X111624000Y-104648000D01*
X171233000Y-104394000D02*
X208026000Y-104394000D01*
X170042000Y-105585000D02*
X171233000Y-104394000D01*
X168190000Y-105585000D02*
X170042000Y-105585000D01*
X167268000Y-104662000D02*
X168190000Y-105585000D01*
X167268000Y-104394000D02*
X167268000Y-104662000D01*
X166116000Y-104394000D02*
X167268000Y-104394000D01*
%TO.N,Pin_29*%
X163472000Y-90646400D02*
X114036000Y-90646400D01*
X164964000Y-89154000D02*
X163472000Y-90646400D01*
X166116000Y-89154000D02*
X164964000Y-89154000D01*
%TO.N,Pin_45*%
X111624000Y-109728000D02*
X112776000Y-109728000D01*
X110672000Y-110680000D02*
X111624000Y-109728000D01*
X68872200Y-110680000D02*
X110672000Y-110680000D01*
X67953700Y-109762000D02*
X68872200Y-110680000D01*
X67953700Y-109474000D02*
X67953700Y-109762000D01*
X66802000Y-109474000D02*
X67953700Y-109474000D01*
X129116000Y-109474000D02*
X166116000Y-109474000D01*
X127683000Y-110906000D02*
X129116000Y-109474000D01*
X114838000Y-110906000D02*
X127683000Y-110906000D01*
X113928000Y-109996000D02*
X114838000Y-110906000D01*
X113928000Y-109728000D02*
X113928000Y-109996000D01*
X112776000Y-109728000D02*
X113928000Y-109728000D01*
%TO.N,Pin_27*%
X67953700Y-86614000D02*
X66802000Y-86614000D01*
X67953700Y-86901900D02*
X67953700Y-86614000D01*
X68846900Y-87795100D02*
X67953700Y-86901900D01*
X110697000Y-87795100D02*
X68846900Y-87795100D01*
X111624000Y-86868000D02*
X110697000Y-87795100D01*
X112776000Y-86868000D02*
X111624000Y-86868000D01*
X163948000Y-85598000D02*
X114046000Y-85598000D01*
X164964000Y-86614000D02*
X163948000Y-85598000D01*
X166116000Y-86614000D02*
X164964000Y-86614000D01*
%TO.N,Pin_43*%
X111624000Y-107188000D02*
X112776000Y-107188000D01*
X110725000Y-108088000D02*
X111624000Y-107188000D01*
X68838700Y-108088000D02*
X110725000Y-108088000D01*
X67953700Y-107202000D02*
X68838700Y-108088000D01*
X67953700Y-106934000D02*
X67953700Y-107202000D01*
X66802000Y-106934000D02*
X67953700Y-106934000D01*
X113934000Y-108346000D02*
X112776000Y-107188000D01*
X163552000Y-108346000D02*
X113934000Y-108346000D01*
X164964000Y-106934000D02*
X163552000Y-108346000D01*
X165540000Y-106934000D02*
X164964000Y-106934000D01*
X166728000Y-108122000D02*
X165540000Y-106934000D01*
X205686000Y-108122000D02*
X166728000Y-108122000D01*
X206874000Y-106934000D02*
X205686000Y-108122000D01*
X208026000Y-106934000D02*
X206874000Y-106934000D01*
X166116000Y-106934000D02*
X165540000Y-106934000D01*
%TO.N,Pin_37*%
X166980000Y-99314000D02*
X166116000Y-99314000D01*
X168184000Y-100518000D02*
X166980000Y-99314000D01*
X187849000Y-100518000D02*
X168184000Y-100518000D01*
X189054000Y-99314000D02*
X187849000Y-100518000D01*
X208026000Y-99314000D02*
X189054000Y-99314000D01*
X164964000Y-99314000D02*
X166116000Y-99314000D01*
X163976000Y-98325900D02*
X164964000Y-99314000D01*
X114133000Y-98325900D02*
X163976000Y-98325900D01*
X114027000Y-98219400D02*
X114133000Y-98325900D01*
%TO.N,Pin_13*%
X67953700Y-68834000D02*
X66802000Y-68834000D01*
X67953700Y-69121900D02*
X67953700Y-68834000D01*
X68846900Y-70015100D02*
X67953700Y-69121900D01*
X110697000Y-70015100D02*
X68846900Y-70015100D01*
X111624000Y-69088000D02*
X110697000Y-70015100D01*
X112776000Y-69088000D02*
X111624000Y-69088000D01*
X171232000Y-68834000D02*
X208026000Y-68834000D01*
X170042000Y-70024600D02*
X171232000Y-68834000D01*
X168190000Y-70024600D02*
X170042000Y-70024600D01*
X167268000Y-69102500D02*
X168190000Y-70024600D01*
X167268000Y-68834000D02*
X167268000Y-69102500D01*
X166116000Y-68834000D02*
X167268000Y-68834000D01*
%TO.N,Pin_5*%
X67953700Y-58674000D02*
X66802000Y-58674000D01*
X67953700Y-58961900D02*
X67953700Y-58674000D01*
X68846900Y-59855100D02*
X67953700Y-58961900D01*
X110697000Y-59855100D02*
X68846900Y-59855100D01*
X111624000Y-58928000D02*
X110697000Y-59855100D01*
X112776000Y-58928000D02*
X111624000Y-58928000D01*
%TO.N,Pin_44*%
X114164000Y-107188000D02*
X115316000Y-107188000D01*
X114164000Y-106920000D02*
X114164000Y-107188000D01*
X113279000Y-106034000D02*
X114164000Y-106920000D01*
X71393200Y-106034000D02*
X113279000Y-106034000D01*
X70493700Y-106934000D02*
X71393200Y-106034000D01*
X69342000Y-106934000D02*
X70493700Y-106934000D01*
X169808000Y-106934000D02*
X168656000Y-106934000D01*
X170969000Y-105773000D02*
X169808000Y-106934000D01*
X208522000Y-105773000D02*
X170969000Y-105773000D01*
X209414000Y-106666000D02*
X208522000Y-105773000D01*
X209414000Y-106934000D02*
X209414000Y-106666000D01*
X210566000Y-106934000D02*
X209414000Y-106934000D01*
%TO.N,Pin_20*%
X70493700Y-76454000D02*
X69342000Y-76454000D01*
X71393200Y-75554500D02*
X70493700Y-76454000D01*
X113279000Y-75554500D02*
X71393200Y-75554500D01*
X114164000Y-76439500D02*
X113279000Y-75554500D01*
X114164000Y-76708000D02*
X114164000Y-76439500D01*
X115316000Y-76708000D02*
X114164000Y-76708000D01*
%TO.N,Pin_22*%
X70493700Y-78994000D02*
X69342000Y-78994000D01*
X71393200Y-78094500D02*
X70493700Y-78994000D01*
X113279000Y-78094500D02*
X71393200Y-78094500D01*
X114164000Y-78979500D02*
X113279000Y-78094500D01*
X114164000Y-79248000D02*
X114164000Y-78979500D01*
X115316000Y-79248000D02*
X114164000Y-79248000D01*
%TO.N,Pin_42*%
X169808000Y-104394000D02*
X168656000Y-104394000D01*
X170969000Y-103233000D02*
X169808000Y-104394000D01*
X208522000Y-103233000D02*
X170969000Y-103233000D01*
X209414000Y-104126000D02*
X208522000Y-103233000D01*
X209414000Y-104394000D02*
X209414000Y-104126000D01*
X210566000Y-104394000D02*
X209414000Y-104394000D01*
X70493700Y-104394000D02*
X69342000Y-104394000D01*
X71393200Y-103494000D02*
X70493700Y-104394000D01*
X113279000Y-103494000D02*
X71393200Y-103494000D01*
X114164000Y-104380000D02*
X113279000Y-103494000D01*
X114164000Y-104648000D02*
X114164000Y-104380000D01*
X115316000Y-104648000D02*
X114164000Y-104648000D01*
%TO.N,Pin_50*%
X210566000Y-114554000D02*
X209414300Y-114554000D01*
X205449400Y-114554000D02*
X168656000Y-114554000D01*
X206640000Y-113363400D02*
X205449400Y-114554000D01*
X208492200Y-113363400D02*
X206640000Y-113363400D01*
X209414300Y-114285500D02*
X208492200Y-113363400D01*
X209414300Y-114554000D02*
X209414300Y-114285500D01*
X115316000Y-114808000D02*
X116467700Y-114808000D01*
X117827700Y-116168000D02*
X167042000Y-116168000D01*
X116467700Y-114808000D02*
X117827700Y-116168000D01*
%TO.N,Pin_12*%
X114164000Y-66548000D02*
X115316000Y-66548000D01*
X114164000Y-66279500D02*
X114164000Y-66548000D01*
X113247000Y-65362000D02*
X114164000Y-66279500D01*
X71425700Y-65362000D02*
X113247000Y-65362000D01*
X70493700Y-66294000D02*
X71425700Y-65362000D01*
X69342000Y-66294000D02*
X70493700Y-66294000D01*
X167504000Y-66294000D02*
X168656000Y-66294000D01*
X167504000Y-66562500D02*
X167504000Y-66294000D01*
X166619000Y-67447500D02*
X167504000Y-66562500D01*
X117367000Y-67447500D02*
X166619000Y-67447500D01*
X116468000Y-66548000D02*
X117367000Y-67447500D01*
X115316000Y-66548000D02*
X116468000Y-66548000D01*
X169808000Y-66294000D02*
X168656000Y-66294000D01*
X170998000Y-65103400D02*
X169808000Y-66294000D01*
X208492000Y-65103400D02*
X170998000Y-65103400D01*
X209414000Y-66025500D02*
X208492000Y-65103400D01*
X209414000Y-66294000D02*
X209414000Y-66025500D01*
X210566000Y-66294000D02*
X209414000Y-66294000D01*
%TO.N,Pin_36*%
X168683000Y-95986600D02*
X169808000Y-95986600D01*
X168682000Y-95985100D02*
X168683000Y-95986600D01*
X168118000Y-95985100D02*
X168682000Y-95985100D01*
X168118000Y-95985000D02*
X168118000Y-95985100D01*
X168048000Y-95985000D02*
X168118000Y-95985000D01*
X168048000Y-95985100D02*
X168048000Y-95985000D01*
X167550000Y-95985100D02*
X168048000Y-95985100D01*
X167148000Y-95583400D02*
X167550000Y-95985100D01*
X117912000Y-95583400D02*
X167148000Y-95583400D01*
X116468000Y-97028000D02*
X117912000Y-95583400D01*
X115316000Y-97028000D02*
X116468000Y-97028000D01*
X169808000Y-96774000D02*
X169808000Y-95986600D01*
X168656000Y-96774000D02*
X169808000Y-96774000D01*
X209414000Y-96774000D02*
X210566000Y-96774000D01*
X209414000Y-96505500D02*
X209414000Y-96774000D01*
X208494000Y-95585600D02*
X209414000Y-96505500D01*
X170209000Y-95585600D02*
X208494000Y-95585600D01*
X169808000Y-95986600D02*
X170209000Y-95585600D01*
X70493700Y-96774000D02*
X69342000Y-96774000D01*
X71425700Y-95842000D02*
X70493700Y-96774000D01*
X113247000Y-95842000D02*
X71425700Y-95842000D01*
X114164000Y-96759500D02*
X113247000Y-95842000D01*
X114164000Y-97028000D02*
X114164000Y-96759500D01*
X115316000Y-97028000D02*
X114164000Y-97028000D01*
%TO.N,Pin_16*%
X169808000Y-71374000D02*
X168656000Y-71374000D01*
X170969000Y-70212700D02*
X169808000Y-71374000D01*
X208522000Y-70212700D02*
X170969000Y-70212700D01*
X209414000Y-71105500D02*
X208522000Y-70212700D01*
X209414000Y-71374000D02*
X209414000Y-71105500D01*
X210566000Y-71374000D02*
X209414000Y-71374000D01*
X70493700Y-71374000D02*
X69342000Y-71374000D01*
X71393200Y-70474500D02*
X70493700Y-71374000D01*
X113279000Y-70474500D02*
X71393200Y-70474500D01*
X114164000Y-71359500D02*
X113279000Y-70474500D01*
X114164000Y-71628000D02*
X114164000Y-71359500D01*
X115316000Y-71628000D02*
X114164000Y-71628000D01*
%TO.N,Pin_46*%
X169808000Y-109474000D02*
X168656000Y-109474000D01*
X170998000Y-110665000D02*
X169808000Y-109474000D01*
X208492000Y-110665000D02*
X170998000Y-110665000D01*
X209414000Y-109742000D02*
X208492000Y-110665000D01*
X209414000Y-109474000D02*
X209414000Y-109742000D01*
X210566000Y-109474000D02*
X209414000Y-109474000D01*
%TO.N,Pin_6*%
X114164000Y-58928000D02*
X115316000Y-58928000D01*
X114164000Y-58659500D02*
X114164000Y-58928000D01*
X113279000Y-57774500D02*
X114164000Y-58659500D01*
X71393200Y-57774500D02*
X113279000Y-57774500D01*
X70493700Y-58674000D02*
X71393200Y-57774500D01*
X69342000Y-58674000D02*
X70493700Y-58674000D01*
X167495000Y-57512700D02*
X168656000Y-58674000D01*
X117883000Y-57512700D02*
X167495000Y-57512700D01*
X116468000Y-58928000D02*
X117883000Y-57512700D01*
X115316000Y-58928000D02*
X116468000Y-58928000D01*
%TO.N,Pin_34*%
X169808000Y-94234000D02*
X169808000Y-93446600D01*
X168656000Y-94234000D02*
X169808000Y-94234000D01*
X209414000Y-94234000D02*
X210566000Y-94234000D01*
X209414000Y-93965500D02*
X209414000Y-94234000D01*
X208494000Y-93045600D02*
X209414000Y-93965500D01*
X170209000Y-93045600D02*
X208494000Y-93045600D01*
X169808000Y-93446600D02*
X170209000Y-93045600D01*
X168683000Y-93446600D02*
X169808000Y-93446600D01*
X168682000Y-93445100D02*
X168683000Y-93446600D01*
X168615000Y-93445100D02*
X168682000Y-93445100D01*
X168613000Y-93446500D02*
X168615000Y-93445100D01*
X168214000Y-93446500D02*
X168613000Y-93446500D01*
X168212000Y-93445100D02*
X168214000Y-93446500D01*
X168118000Y-93445100D02*
X168212000Y-93445100D01*
X168118000Y-93445000D02*
X168118000Y-93445100D01*
X168048000Y-93445000D02*
X168118000Y-93445000D01*
X168048000Y-93445100D02*
X168048000Y-93445000D01*
X167550000Y-93445100D02*
X168048000Y-93445100D01*
X167148000Y-93043400D02*
X167550000Y-93445100D01*
X117912000Y-93043400D02*
X167148000Y-93043400D01*
X116468000Y-94488000D02*
X117912000Y-93043400D01*
X115316000Y-94488000D02*
X116468000Y-94488000D01*
X70493700Y-94234000D02*
X69342000Y-94234000D01*
X71418300Y-93309400D02*
X70493700Y-94234000D01*
X113254000Y-93309400D02*
X71418300Y-93309400D01*
X114164000Y-94219500D02*
X113254000Y-93309400D01*
X114164000Y-94488000D02*
X114164000Y-94219500D01*
X115316000Y-94488000D02*
X114164000Y-94488000D01*
%TO.N,Pin_26*%
X169808000Y-84074000D02*
X168656000Y-84074000D01*
X170208000Y-83673800D02*
X169808000Y-84074000D01*
X205850000Y-83673800D02*
X170208000Y-83673800D01*
X206611000Y-82912700D02*
X205850000Y-83673800D01*
X208522000Y-82912700D02*
X206611000Y-82912700D01*
X209414000Y-83805500D02*
X208522000Y-82912700D01*
X209414000Y-84074000D02*
X209414000Y-83805500D01*
X210566000Y-84074000D02*
X209414000Y-84074000D01*
X70493700Y-84074000D02*
X69342000Y-84074000D01*
X71393200Y-83174500D02*
X70493700Y-84074000D01*
X113279000Y-83174500D02*
X71393200Y-83174500D01*
X114164000Y-84059500D02*
X113279000Y-83174500D01*
X114164000Y-84328000D02*
X114164000Y-84059500D01*
X115316000Y-84328000D02*
X114164000Y-84328000D01*
%TO.N,Pin_14*%
X169808000Y-68834000D02*
X168656000Y-68834000D01*
X170969000Y-67672700D02*
X169808000Y-68834000D01*
X208522000Y-67672700D02*
X170969000Y-67672700D01*
X209414000Y-68565500D02*
X208522000Y-67672700D01*
X209414000Y-68834000D02*
X209414000Y-68565500D01*
X210566000Y-68834000D02*
X209414000Y-68834000D01*
X114164000Y-69088000D02*
X115316000Y-69088000D01*
X114164000Y-68819500D02*
X114164000Y-69088000D01*
X113279000Y-67934500D02*
X114164000Y-68819500D01*
X71393200Y-67934500D02*
X113279000Y-67934500D01*
X70493700Y-68834000D02*
X71393200Y-67934500D01*
X69342000Y-68834000D02*
X70493700Y-68834000D01*
%TO.N,Pin_10*%
X116468000Y-64008000D02*
X115316000Y-64008000D01*
X117367000Y-64907500D02*
X116468000Y-64008000D01*
X166619000Y-64907500D02*
X117367000Y-64907500D01*
X167504000Y-64022500D02*
X166619000Y-64907500D01*
X167504000Y-63754000D02*
X167504000Y-64022500D01*
X168656000Y-63754000D02*
X167504000Y-63754000D01*
X70493700Y-63754000D02*
X69342000Y-63754000D01*
X71393200Y-62854500D02*
X70493700Y-63754000D01*
X113279000Y-62854500D02*
X71393200Y-62854500D01*
X114164000Y-63739500D02*
X113279000Y-62854500D01*
X114164000Y-64008000D02*
X114164000Y-63739500D01*
X115316000Y-64008000D02*
X114164000Y-64008000D01*
%TO.N,Pin_2*%
X169808000Y-53594000D02*
X168656000Y-53594000D01*
X170964000Y-54750400D02*
X169808000Y-53594000D01*
X207210000Y-54750400D02*
X170964000Y-54750400D01*
X207212000Y-54751900D02*
X207210000Y-54750400D01*
X209048000Y-54751900D02*
X207212000Y-54751900D01*
X209414000Y-54385800D02*
X209048000Y-54751900D01*
X209414000Y-53594000D02*
X209414000Y-54385800D01*
X210566000Y-53594000D02*
X209414000Y-53594000D01*
X116468000Y-53848000D02*
X115316000Y-53848000D01*
X117873000Y-52442300D02*
X116468000Y-53848000D01*
X167167000Y-52442300D02*
X117873000Y-52442300D01*
X167504000Y-52779500D02*
X167167000Y-52442300D01*
X167504000Y-53594000D02*
X167504000Y-52779500D01*
X168656000Y-53594000D02*
X167504000Y-53594000D01*
%TO.N,Pin_40*%
X70493700Y-101854000D02*
X69342000Y-101854000D01*
X71393200Y-100954000D02*
X70493700Y-101854000D01*
X113279000Y-100954000D02*
X71393200Y-100954000D01*
X114164000Y-101840000D02*
X113279000Y-100954000D01*
X114164000Y-102108000D02*
X114164000Y-101840000D01*
X115316000Y-102108000D02*
X114164000Y-102108000D01*
X169808000Y-101854000D02*
X168656000Y-101854000D01*
X170208000Y-101454000D02*
X169808000Y-101854000D01*
X205850000Y-101454000D02*
X170208000Y-101454000D01*
X206611000Y-100693000D02*
X205850000Y-101454000D01*
X208522000Y-100693000D02*
X206611000Y-100693000D01*
X209414000Y-101586000D02*
X208522000Y-100693000D01*
X209414000Y-101854000D02*
X209414000Y-101586000D01*
X210566000Y-101854000D02*
X209414000Y-101854000D01*
%TO.N,Pin_28*%
X70493700Y-86614000D02*
X69342000Y-86614000D01*
X71393200Y-85714500D02*
X70493700Y-86614000D01*
X113279000Y-85714500D02*
X71393200Y-85714500D01*
X114164000Y-86599500D02*
X113279000Y-85714500D01*
X114164000Y-86868000D02*
X114164000Y-86599500D01*
X115316000Y-86868000D02*
X114164000Y-86868000D01*
X169808000Y-86614000D02*
X168656000Y-86614000D01*
X170969000Y-85452700D02*
X169808000Y-86614000D01*
X208522000Y-85452700D02*
X170969000Y-85452700D01*
X209414000Y-86345500D02*
X208522000Y-85452700D01*
X209414000Y-86614000D02*
X209414000Y-86345500D01*
X210566000Y-86614000D02*
X209414000Y-86614000D01*
%TO.N,Pin_8*%
X169808000Y-61214000D02*
X169808000Y-60592700D01*
X168656000Y-61214000D02*
X169808000Y-61214000D01*
X169642000Y-60426600D02*
X169808000Y-60592700D01*
X168683000Y-60426600D02*
X169642000Y-60426600D01*
X168682000Y-60425100D02*
X168683000Y-60426600D01*
X167871000Y-60425100D02*
X168682000Y-60425100D01*
X167871000Y-60425000D02*
X167871000Y-60425100D01*
X167802000Y-60425000D02*
X167871000Y-60425000D01*
X167400000Y-60023400D02*
X167802000Y-60425000D01*
X117912000Y-60023400D02*
X167400000Y-60023400D01*
X116468000Y-61468000D02*
X117912000Y-60023400D01*
X115316000Y-61468000D02*
X116468000Y-61468000D01*
X209414000Y-61214000D02*
X210566000Y-61214000D01*
X209414000Y-60945500D02*
X209414000Y-61214000D01*
X208496000Y-60027100D02*
X209414000Y-60945500D01*
X170774000Y-60027100D02*
X208496000Y-60027100D01*
X170208000Y-60592700D02*
X170774000Y-60027100D01*
X169808000Y-60592700D02*
X170208000Y-60592700D01*
X70493700Y-61214000D02*
X69342000Y-61214000D01*
X71393200Y-60314500D02*
X70493700Y-61214000D01*
X113279000Y-60314500D02*
X71393200Y-60314500D01*
X114164000Y-61199500D02*
X113279000Y-60314500D01*
X114164000Y-61468000D02*
X114164000Y-61199500D01*
X115316000Y-61468000D02*
X114164000Y-61468000D01*
%TO.N,Pin_38*%
X70493700Y-99314000D02*
X69342000Y-99314000D01*
X71393200Y-98414500D02*
X70493700Y-99314000D01*
X113279000Y-98414500D02*
X71393200Y-98414500D01*
X114164000Y-99299500D02*
X113279000Y-98414500D01*
X114164000Y-99568000D02*
X114164000Y-99299500D01*
X115316000Y-99568000D02*
X114164000Y-99568000D01*
%TO.N,Pin_18*%
X167504000Y-73914000D02*
X168656000Y-73914000D01*
X167504000Y-74182500D02*
X167504000Y-73914000D01*
X166595000Y-75092000D02*
X167504000Y-74182500D01*
X117392000Y-75092000D02*
X166595000Y-75092000D01*
X116468000Y-74168000D02*
X117392000Y-75092000D01*
X115316000Y-74168000D02*
X116468000Y-74168000D01*
X169808000Y-73914000D02*
X168656000Y-73914000D01*
X170998000Y-75104600D02*
X169808000Y-73914000D01*
X208492000Y-75104600D02*
X170998000Y-75104600D01*
X209414000Y-74182500D02*
X208492000Y-75104600D01*
X209414000Y-73914000D02*
X209414000Y-74182500D01*
X210566000Y-73914000D02*
X209414000Y-73914000D01*
X70493700Y-73914000D02*
X69342000Y-73914000D01*
X71393200Y-73014500D02*
X70493700Y-73914000D01*
X113279000Y-73014500D02*
X71393200Y-73014500D01*
X114164000Y-73899500D02*
X113279000Y-73014500D01*
X114164000Y-74168000D02*
X114164000Y-73899500D01*
X115316000Y-74168000D02*
X114164000Y-74168000D01*
%TO.N,Pin_48*%
X146274000Y-112268000D02*
X115316000Y-112268000D01*
X147719000Y-110823000D02*
X146274000Y-112268000D01*
X166582000Y-110823000D02*
X147719000Y-110823000D01*
X167504000Y-111746000D02*
X166582000Y-110823000D01*
X167504000Y-112014000D02*
X167504000Y-111746000D01*
X168656000Y-112014000D02*
X167504000Y-112014000D01*
%TO.N,Pin_24*%
X114164000Y-81788000D02*
X115316000Y-81788000D01*
X114164000Y-81544200D02*
X114164000Y-81788000D01*
X113254000Y-80634500D02*
X114164000Y-81544200D01*
X71393200Y-80634500D02*
X113254000Y-80634500D01*
X70493700Y-81534000D02*
X71393200Y-80634500D01*
X69342000Y-81534000D02*
X70493700Y-81534000D01*
%TO.N,Pin_30*%
X169808000Y-89154000D02*
X169808000Y-88532700D01*
X168656000Y-89154000D02*
X169808000Y-89154000D01*
X169642000Y-88366600D02*
X169808000Y-88532700D01*
X168683000Y-88366600D02*
X169642000Y-88366600D01*
X168682000Y-88365100D02*
X168683000Y-88366600D01*
X168118000Y-88365100D02*
X168682000Y-88365100D01*
X168118000Y-88365000D02*
X168118000Y-88365100D01*
X168051000Y-88365000D02*
X168118000Y-88365000D01*
X168050000Y-88366600D02*
X168051000Y-88365000D01*
X167551000Y-88366600D02*
X168050000Y-88366600D01*
X167150000Y-87964900D02*
X167551000Y-88366600D01*
X118479000Y-87964900D02*
X167150000Y-87964900D01*
X117036000Y-89408000D02*
X118479000Y-87964900D01*
X115316000Y-89408000D02*
X117036000Y-89408000D01*
X209414000Y-89154000D02*
X210566000Y-89154000D01*
X209414000Y-88885500D02*
X209414000Y-89154000D01*
X208496000Y-87967100D02*
X209414000Y-88885500D01*
X170774000Y-87967100D02*
X208496000Y-87967100D01*
X170208000Y-88532700D02*
X170774000Y-87967100D01*
X169808000Y-88532700D02*
X170208000Y-88532700D01*
X70493700Y-89154000D02*
X69342000Y-89154000D01*
X71393200Y-88254500D02*
X70493700Y-89154000D01*
X113279000Y-88254500D02*
X71393200Y-88254500D01*
X114164000Y-89139500D02*
X113279000Y-88254500D01*
X114164000Y-89408000D02*
X114164000Y-89139500D01*
X115316000Y-89408000D02*
X114164000Y-89408000D01*
%TO.N,Pin_32*%
X169808000Y-91694000D02*
X168656000Y-91694000D01*
X170969000Y-90532700D02*
X169808000Y-91694000D01*
X208522000Y-90532700D02*
X170969000Y-90532700D01*
X209414000Y-91425500D02*
X208522000Y-90532700D01*
X209414000Y-91694000D02*
X209414000Y-91425500D01*
X210566000Y-91694000D02*
X209414000Y-91694000D01*
X114164000Y-91948000D02*
X115316000Y-91948000D01*
X114164000Y-91679500D02*
X114164000Y-91948000D01*
X113279000Y-90794500D02*
X114164000Y-91679500D01*
X71393200Y-90794500D02*
X113279000Y-90794500D01*
X70493700Y-91694000D02*
X71393200Y-90794500D01*
X69342000Y-91694000D02*
X70493700Y-91694000D01*
%TO.N,Pin_4*%
X70942400Y-55685300D02*
X111128000Y-55685300D01*
X70493700Y-56134000D02*
X70942400Y-55685300D01*
X69342000Y-56134000D02*
X70493700Y-56134000D01*
X117328000Y-55527400D02*
X164119000Y-55527400D01*
X116468000Y-56388000D02*
X117328000Y-55527400D01*
X115316000Y-56388000D02*
X116468000Y-56388000D01*
X169808000Y-56134000D02*
X168656000Y-56134000D01*
X170998000Y-57324600D02*
X169808000Y-56134000D01*
X208492000Y-57324600D02*
X170998000Y-57324600D01*
X209414000Y-56402500D02*
X208492000Y-57324600D01*
X209414000Y-56134000D02*
X209414000Y-56402500D01*
X210566000Y-56134000D02*
X209414000Y-56134000D01*
%TD*%
M02*
